<svg width="326" height="46" viewBox="0 0 326 46" fill="none" xmlns="http://www.w3.org/2000/svg">
<path d="M17.5204 32.2224C15.5071 33.3853 14.0608 32.4162 14.0608 30.6924C14.0608 28.8574 14.0608 23.3514 14.0608 23.3514C14.0608 23.3514 14.0608 17.8454 14.0608 16.0103C14.0608 14.2866 15.5062 13.3174 17.5204 14.4804C20.6561 16.2912 30.0623 21.7254 30.0623 21.7254C31.313 22.4478 31.313 24.2541 30.0623 24.9764C30.0623 24.9773 20.6561 30.4116 17.5204 32.2224Z" fill="#00C1FF"/>
<path d="M27.8751 32.2217C25.8618 33.3846 24.4155 32.4155 24.4155 30.6917C24.4155 28.8567 24.4155 23.3506 24.4155 23.3506C24.4155 23.3506 24.4155 17.8446 24.4155 16.0096C24.4155 14.2858 25.8609 13.3167 27.8751 14.4796C30.9418 16.251 40.1416 21.5659 40.1416 21.5659C41.5153 22.3591 41.5153 24.3422 40.1416 25.1354C40.1407 25.1354 30.9418 30.4503 27.8751 32.2217Z" fill="#FCDE00"/>
<mask id="mask0_1_12680" style="mask-type:alpha" maskUnits="userSpaceOnUse" x="24" y="13" width="18" height="20">
<path d="M27.8751 32.2217C25.8618 33.3846 24.4155 32.4155 24.4155 30.6917C24.4155 28.8567 24.4155 23.3506 24.4155 23.3506C24.4155 23.3506 24.4155 17.8446 24.4155 16.0096C24.4155 14.2858 25.8609 13.3167 27.8751 14.4796C30.9418 16.251 40.1416 21.5659 40.1416 21.5659C41.5153 22.3591 41.5153 24.3422 40.1416 25.1354C40.1407 25.1354 30.9418 30.4503 27.8751 32.2217Z" fill="#FCDE00"/>
</mask>
<g mask="url(#mask0_1_12680)">
<g filter="url(#filter0_f_1_12680)">
<path d="M17.5204 32.2224C15.5071 33.3853 14.0608 32.4162 14.0608 30.6924C14.0608 28.8574 14.0608 23.3514 14.0608 23.3514C14.0608 23.3514 14.0608 17.8454 14.0608 16.0103C14.0608 14.2866 15.5062 13.3174 17.5204 14.4804C20.6561 16.2912 30.0623 21.7254 30.0623 21.7254C31.313 22.4478 31.313 24.2541 30.0623 24.9764C30.0623 24.9773 20.6561 30.4116 17.5204 32.2224Z" fill="#FF8A00"/>
</g>
</g>
<path d="M47.8528 26.624L48.2099 25.8157C48.4476 25.2684 48.8756 25.1258 49.4228 25.5304C50.4689 26.2912 52.1807 26.8618 54.464 26.8618C56.4135 26.8618 57.2461 26.3621 57.2461 25.7681C57.2461 25.1025 56.5562 24.9123 55.415 24.7696L52.8231 24.4368C49.7081 24.0321 48.1381 22.9152 48.1381 20.9647C48.1381 18.8726 49.8499 17.2074 53.8216 17.2074C56.0331 17.2074 57.4596 17.5403 58.3873 17.8973C59.4092 18.302 59.5527 18.6348 59.5527 19.4665V20.5368C59.5527 21.2025 59.315 21.4402 58.6493 21.4402H57.9118C57.2461 21.4402 57.0083 21.2025 57.0083 20.5368V20.1797C56.5804 20.0371 55.5101 19.8227 54.2505 19.8227C52.0623 19.8227 50.9929 20.2273 50.9929 20.893C50.9929 21.3918 51.6352 21.678 52.7998 21.844L55.3441 22.1768C58.4591 22.5814 60.1 23.5082 60.1 25.7439C60.1 28.0263 57.936 29.477 54.0836 29.477C51.2539 29.477 48.9707 28.5736 48.0672 27.741C47.7344 27.4324 47.6868 27.0287 47.8528 26.624Z" fill="black"/>
<path d="M75.9125 29.2877H74.6044C73.962 29.2877 73.7485 29.1926 73.439 28.7171L70.9655 25.0791C70.6084 24.5794 70.3474 24.461 69.6108 24.461H67.1373V28.3843C67.1373 29.05 66.8996 29.2877 66.2339 29.2877H65.2829C64.6172 29.2877 64.3794 29.05 64.3794 28.3843V16.566H63.4993C62.8336 16.566 62.5959 16.3282 62.5959 15.6625V14.8775C62.5959 14.2118 62.8336 13.974 63.4993 13.974H66.2339C66.8996 13.974 67.1373 14.2118 67.1373 14.8775V21.7973H69.3488C70.0854 21.7973 70.3474 21.6789 70.7035 21.1792L72.7724 17.9924C73.1052 17.4936 73.3197 17.3985 73.9611 17.3985H75.2692C75.9824 17.3985 76.1251 17.9691 75.7214 18.5639L73.4148 22.0593C73.177 22.3921 72.8917 22.7492 72.6064 23.0345C72.8917 23.2722 73.2963 23.6769 73.4623 23.9146L76.3628 28.1474C76.7684 28.7171 76.6257 29.2877 75.9125 29.2877Z" fill="black"/>
<path d="M80.4064 31.475V30.69C80.4064 30.0243 80.6441 29.7865 81.3098 29.7865H82.451C83.1409 29.7865 83.4738 29.6439 83.7348 29.0966L83.8775 28.7871L78.4317 18.4904C78.0988 17.8722 78.3608 17.3967 79.0741 17.3967H80.3104C80.9527 17.3967 81.238 17.5151 81.4758 17.9673L83.7582 22.6514C84.2812 23.7217 84.876 24.958 85.3515 26.0283C85.827 24.9822 86.3734 23.7935 86.8973 22.7465L89.2282 17.9691C89.4426 17.5169 89.7512 17.3985 90.3936 17.3985H91.6299C92.3431 17.3985 92.6051 17.874 92.2722 18.4922L86.0666 30.2629C85.3533 31.6185 84.5207 32.3793 82.6663 32.3793H81.3098C80.6441 32.3784 80.4064 32.1407 80.4064 31.475Z" fill="black"/>
<path d="M94.3285 26.624L94.6856 25.8157C94.9233 25.2684 95.3513 25.1258 95.8986 25.5304C96.9447 26.2912 98.6564 26.8618 100.94 26.8618C102.889 26.8618 103.722 26.3621 103.722 25.7681C103.722 25.1025 103.032 24.9123 101.891 24.7696L99.2988 24.4368C96.1839 24.0321 94.6138 22.9152 94.6138 20.9647C94.6138 18.8726 96.3256 17.2074 100.297 17.2074C102.509 17.2074 103.935 17.5403 104.863 17.8973C105.885 18.302 106.028 18.6348 106.028 19.4665V20.5368C106.028 21.2025 105.791 21.4402 105.125 21.4402H104.388C103.722 21.4402 103.484 21.2025 103.484 20.5368V20.1797C103.056 20.0371 101.986 19.8227 100.726 19.8227C98.538 19.8227 97.4686 20.2273 97.4686 20.893C97.4686 21.3918 98.111 21.678 99.2755 21.844L101.82 22.1768C104.935 22.5814 106.576 23.5082 106.576 25.7439C106.576 28.0263 104.412 29.477 100.559 29.477C97.7297 29.477 95.4464 28.5736 94.5429 27.741C94.2101 27.4324 94.1626 27.0287 94.3285 26.624Z" fill="black"/>
<path d="M132.249 22.6774V28.3843C132.249 29.05 132.011 29.2877 131.345 29.2877H130.394C129.729 29.2877 129.491 29.05 129.491 28.3843V22.9152C129.491 21.0607 128.588 19.9429 126.732 19.9429C125.234 19.9429 124.045 20.8705 123.165 21.8449V28.3843C123.165 29.05 122.927 29.2877 122.262 29.2877H121.311C120.645 29.2877 120.407 29.05 120.407 28.3843V22.9152C120.407 21.0607 119.527 19.9429 117.673 19.9429C116.222 19.9186 114.961 20.7988 114.082 21.7498V28.3843C114.082 29.05 113.845 29.2877 113.179 29.2877H112.228C111.562 29.2877 111.324 29.05 111.324 28.3843V19.9904H110.444C109.779 19.9904 109.541 19.7527 109.541 19.087V18.302C109.541 17.6363 109.779 17.3985 110.444 17.3985H112.751C113.417 17.3985 113.654 17.6363 113.654 18.302V18.9443C114.463 18.1118 115.771 17.2083 117.744 17.2083C119.932 17.2083 121.358 17.9216 122.215 19.253C123.261 18.1826 124.688 17.2083 126.781 17.2083C130.156 17.2074 132.249 19.0628 132.249 22.6774Z" fill="black"/>
<path d="M142.474 21.8449H145.28V21.4402C145.28 20.3941 144.02 19.776 142.023 19.776C140.216 19.776 138.765 20.4417 137.909 21.0841C137.362 21.4887 136.934 21.3694 136.696 20.7988L136.339 19.9904C136.173 19.5858 136.22 19.1821 136.553 18.8726C137.243 18.2302 139.264 17.2083 142.165 17.2083C145.447 17.2083 147.943 18.5873 147.943 21.0607V28.3843C147.943 29.05 147.705 29.2877 147.04 29.2877H146.279C145.613 29.2877 145.375 29.05 145.375 28.3843V27.7186C144.59 28.6462 142.974 29.4779 140.715 29.4779C138.075 29.4779 135.793 28.2416 135.793 25.8157C135.792 23.2005 138.194 21.8449 142.474 21.8449ZM141 26.9811C142.498 26.9811 145.375 26.1728 145.375 24.0321H142.783C139.834 24.0321 138.622 24.6503 138.622 25.673C138.621 26.5056 139.406 26.9811 141 26.9811Z" fill="black"/>
<path d="M164.397 22.4155C164.397 23.0811 164.159 23.3189 163.494 23.3189H162.543C161.877 23.3189 161.639 23.1287 161.639 22.4155C161.639 20.6561 160.973 19.8711 159.357 19.8711C157.835 19.8711 156.575 20.8221 155.861 21.9642V28.3843C155.861 29.05 155.624 29.2877 154.958 29.2877H154.007C153.341 29.2877 153.103 29.05 153.103 28.3843V19.9904H152.223C151.558 19.9904 151.32 19.7527 151.32 19.087V18.302C151.32 17.6363 151.558 17.3985 152.223 17.3985H154.53C155.196 17.3985 155.433 17.6363 155.433 18.302V19.0628C156.289 18.1118 157.574 17.2083 159.786 17.2083C163.065 17.2074 164.397 19.1336 164.397 22.4155Z" fill="black"/>
<path d="M167.104 17.3985H168.697V14.2836C168.697 13.6179 168.935 13.3801 169.6 13.3801H170.551C171.217 13.3801 171.455 13.6179 171.455 14.2836V17.3985H177.376C178.042 17.3985 178.28 17.6363 178.28 18.302V19.087C178.28 19.7527 178.042 19.9904 177.376 19.9904H171.455V25.2218C171.455 26.2445 172.145 26.7909 173.785 26.7909C175.117 26.7909 175.925 26.3387 176.401 25.9826C176.948 25.578 177.329 25.7206 177.614 26.2679L178.066 27.1713C178.256 27.5759 178.161 27.8846 177.804 28.1941C177.376 28.5745 175.997 29.4779 173.476 29.4779C170.742 29.4779 168.696 28.3125 168.696 25.5779V19.9895H167.103C166.437 19.9895 166.199 19.7518 166.199 19.0861V18.3011C166.2 17.6354 166.438 17.3985 167.104 17.3985Z" fill="black"/>
<path d="M208.312 27.3571C209.228 28.1905 211.542 29.0952 214.412 29.0952C218.317 29.0952 220.512 27.6429 220.512 25.3571C220.512 23.119 218.848 22.1905 215.689 21.7857L213.11 21.4524C211.928 21.2857 211.277 21 211.277 20.5C211.277 19.8333 212.362 19.4286 214.58 19.4286C215.858 19.4286 216.943 19.6429 217.377 19.7857V20.1429C217.377 20.8095 217.618 21.0476 218.293 21.0476H219.041C219.716 21.0476 219.957 20.8095 219.957 20.1429V19.0714C219.957 18.2381 219.812 17.9048 218.776 17.5C217.835 17.1429 216.389 16.8095 214.146 16.8095C210.12 16.8095 208.384 18.4762 208.384 20.5714C208.384 22.5238 209.975 23.6429 213.134 24.0476L215.762 24.381C216.919 24.5238 217.618 24.7143 217.618 25.381C217.618 25.9762 216.774 26.4762 214.797 26.4762C212.483 26.4762 210.747 25.9048 209.686 25.1429C209.131 24.7381 208.697 24.881 208.456 25.4286L208.095 26.2381C207.926 26.6429 207.974 27.0476 208.312 27.3571Z" fill="black"/>
<path d="M237.324 27.7619L234.382 23.5238C234.213 23.2857 233.803 22.881 233.514 22.6429C233.803 22.3571 234.093 22 234.334 21.6667L236.673 18.1667C237.082 17.5714 236.938 17 236.214 17H234.888C234.237 17 234.02 17.0952 233.683 17.5952L231.585 20.7857C231.224 21.2857 230.958 21.4048 230.211 21.4048H227.969V14.4762C227.969 13.8095 227.727 13.5714 227.052 13.5714H224.28C223.605 13.5714 223.363 13.8095 223.363 14.4762V15.2619C223.363 15.9286 223.605 16.1667 224.28 16.1667H225.172V28C225.172 28.6667 225.413 28.9048 226.088 28.9048H227.052C227.727 28.9048 227.969 28.6667 227.969 28V24.0714H230.476C231.224 24.0714 231.489 24.1905 231.85 24.6905L234.358 28.3333C234.671 28.8095 234.888 28.9048 235.539 28.9048H236.865C237.589 28.9048 237.733 28.3333 237.324 27.7619Z" fill="black"/>
<path d="M243.085 32H244.459C246.34 32 247.184 31.2381 247.907 29.881L254.2 18.0952C254.538 17.4762 254.272 17 253.549 17H252.295C251.644 17 251.331 17.119 251.114 17.5714L248.751 22.3571C248.221 23.4048 247.666 24.5952 247.184 25.6429C246.702 24.5714 246.099 23.3333 245.569 22.2619L243.254 17.5714C243.013 17.119 242.723 17 242.072 17H240.819C240.095 17 239.83 17.4762 240.168 18.0952L245.689 28.4048L245.544 28.7143C245.279 29.2619 244.942 29.4048 244.242 29.4048H243.085C242.41 29.4048 242.169 29.6429 242.169 30.3095V31.0952C242.169 31.7619 242.41 32 243.085 32Z" fill="black"/>
<path d="M256.951 27.3571C257.867 28.1905 260.182 29.0952 263.051 29.0952C266.957 29.0952 269.151 27.6429 269.151 25.3571C269.151 23.119 267.487 22.1905 264.329 21.7857L261.749 21.4524C260.567 21.2857 259.916 21 259.916 20.5C259.916 19.8333 261.001 19.4286 263.219 19.4286C264.497 19.4286 265.582 19.6429 266.016 19.7857V20.1429C266.016 20.8095 266.257 21.0476 266.933 21.0476H267.68C268.355 21.0476 268.596 20.8095 268.596 20.1429V19.0714C268.596 18.2381 268.452 17.9048 267.415 17.5C266.474 17.1429 265.028 16.8095 262.785 16.8095C258.759 16.8095 257.023 18.4762 257.023 20.5714C257.023 22.5238 258.614 23.6429 261.773 24.0476L264.401 24.381C265.558 24.5238 266.257 24.7143 266.257 25.381C266.257 25.9762 265.414 26.4762 263.436 26.4762C261.122 26.4762 259.386 25.9048 258.325 25.1429C257.77 24.7381 257.336 24.881 257.095 25.4286L256.734 26.2381C256.565 26.6429 256.613 27.0476 256.951 27.3571Z" fill="black"/>
<path d="M285.963 27.7619L283.021 23.5238C282.852 23.2857 282.443 22.881 282.153 22.6429C282.443 22.3571 282.732 22 282.973 21.6667L285.312 18.1667C285.722 17.5714 285.577 17 284.854 17H283.528C282.877 17 282.66 17.0952 282.322 17.5952L280.224 20.7857C279.863 21.2857 279.597 21.4048 278.85 21.4048H276.608V14.4762C276.608 13.8095 276.367 13.5714 275.692 13.5714H272.919C272.244 13.5714 272.003 13.8095 272.003 14.4762V15.2619C272.003 15.9286 272.244 16.1667 272.919 16.1667H273.811V28C273.811 28.6667 274.052 28.9048 274.727 28.9048H275.692C276.367 28.9048 276.608 28.6667 276.608 28V24.0714H279.115C279.863 24.0714 280.128 24.1905 280.49 24.6905L282.997 28.3333C283.311 28.8095 283.528 28.9048 284.178 28.9048H285.505C286.228 28.9048 286.373 28.3333 285.963 27.7619Z" fill="black"/>
<path d="M292.375 15.6429C291.194 15.6429 290.326 14.8571 290.326 13.8095C290.326 12.7857 291.194 12 292.375 12C293.508 12 294.376 12.7857 294.376 13.8095C294.376 14.8571 293.508 15.6429 292.375 15.6429ZM292.038 28.9048H293.002C293.677 28.9048 293.918 28.6667 293.918 28V17.9048C293.918 17.2381 293.677 17 293.002 17H290.229C289.554 17 289.313 17.2381 289.313 17.9048V18.6905C289.313 19.3571 289.554 19.5952 290.229 19.5952H291.122V28C291.122 28.6667 291.363 28.9048 292.038 28.9048Z" fill="black"/>
<path d="M301.539 13.5714H298.766C298.091 13.5714 297.85 13.8095 297.85 14.4762V15.2619C297.85 15.9286 298.091 16.1667 298.766 16.1667H299.658V28C299.658 28.6667 299.9 28.9048 300.575 28.9048H301.539C302.214 28.9048 302.455 28.6667 302.455 28V14.4762C302.455 13.8095 302.214 13.5714 301.539 13.5714Z" fill="black"/>
<path d="M309.223 13.5714H306.45C305.775 13.5714 305.534 13.8095 305.534 14.4762V15.2619C305.534 15.9286 305.775 16.1667 306.45 16.1667H307.342V28C307.342 28.6667 307.584 28.9048 308.259 28.9048H309.223C309.898 28.9048 310.139 28.6667 310.139 28V14.4762C310.139 13.8095 309.898 13.5714 309.223 13.5714Z" fill="black"/>
<path d="M313.8 27.3571C314.716 28.1905 317.031 29.0952 319.9 29.0952C323.806 29.0952 326 27.6429 326 25.3571C326 23.119 324.336 22.1905 321.178 21.7857L318.598 21.4524C317.417 21.2857 316.766 21 316.766 20.5C316.766 19.8333 317.851 19.4286 320.069 19.4286C321.347 19.4286 322.432 19.6429 322.866 19.7857V20.1429C322.866 20.8095 323.107 21.0476 323.782 21.0476H324.529C325.204 21.0476 325.445 20.8095 325.445 20.1429V19.0714C325.445 18.2381 325.301 17.9048 324.264 17.5C323.324 17.1429 321.877 16.8095 319.635 16.8095C315.608 16.8095 313.872 18.4762 313.872 20.5714C313.872 22.5238 315.464 23.6429 318.622 24.0476L321.25 24.381C322.408 24.5238 323.107 24.7143 323.107 25.381C323.107 25.9762 322.263 26.4762 320.286 26.4762C317.971 26.4762 316.235 25.9048 315.174 25.1429C314.62 24.7381 314.186 24.881 313.945 25.4286L313.583 26.2381C313.414 26.6429 313.462 27.0476 313.8 27.3571Z" fill="black"/>
<path d="M188 17L194 23M200 29L194 23M194 23L200 17M194 23L188 29" stroke="black"/>
<defs>
<filter id="filter0_f_1_12680" x="12.6251" y="12.5365" width="19.8109" height="21.6299" filterUnits="userSpaceOnUse" color-interpolation-filters="sRGB">
<feFlood flood-opacity="0" result="BackgroundImageFix"/>
<feBlend mode="normal" in="SourceGraphic" in2="BackgroundImageFix" result="shape"/>
<feGaussianBlur stdDeviation="0.717838" result="effect1_foregroundBlur_1_12680"/>
</filter>
</defs>
</svg>
